<svg width="24" height="24" viewBox="0 0 24 24" fill="none" xmlns="http://www.w3.org/2000/svg">
<g clip-path="url(#clip0_23_259)">
<path fill-rule="evenodd" clip-rule="evenodd" d="M20.5937 0.251043C20.4329 0.0901919 20.2147 -0.000119835 19.9872 1.19342e-07C19.7597 0.000121913 19.5417 0.0906654 19.3809 0.251687L11.3241 8.32567C11.1929 8.45713 11.1079 8.62765 11.082 8.81157L10.5678 12.4629C10.5303 12.7287 10.6196 12.9968 10.8091 13.1871C10.9985 13.3774 11.2661 13.4679 11.5321 13.4317L15.1834 12.9345C15.3691 12.9093 15.5414 12.8238 15.6739 12.6913L23.7478 4.61734C24.0826 4.28262 24.0826 3.73994 23.7478 3.40522L20.5937 0.251043ZM2.18819 2.78561C2.18819 2.43058 2.47599 2.14278 2.83103 2.14278H14.6163C15.208 2.14278 15.6877 1.6631 15.6877 1.07139C15.6877 0.479677 15.208 1.19342e-07 14.6163 1.19342e-07H2.83103C1.29257 1.19342e-07 0.0454102 1.24716 0.0454102 2.78561V21.2135C0.0454102 22.752 1.29257 23.9991 2.83103 23.9991H18.2591C19.7974 23.9991 21.0447 22.752 21.0447 21.2135V13.0709C21.0447 12.4792 20.5649 11.9996 19.9733 11.9996C19.3816 11.9996 18.9019 12.4792 18.9019 13.0709V18.0127H2.18819V2.78561ZM5.18808 5.14267C5.18808 4.55095 5.66776 4.07128 6.25947 4.07128H9.68792C10.2796 4.07128 10.7593 4.55095 10.7593 5.14267C10.7593 5.73438 10.2796 6.21406 9.68792 6.21406H6.25947C5.66776 6.21406 5.18808 5.73438 5.18808 5.14267ZM6.25947 8.35683C5.66776 8.35683 5.18808 8.83651 5.18808 9.42822C5.18808 10.0199 5.66776 10.4996 6.25947 10.4996H7.97369C8.56541 10.4996 9.04508 10.0199 9.04508 9.42822C9.04508 8.83651 8.56541 8.35683 7.97369 8.35683H6.25947Z" fill="currentColor"/>
</g>
<defs>
<clipPath id="clip0_23_259">
<rect width="23.9991" height="23.9991" fill="white"/>
</clipPath>
</defs>
</svg>
